# xmcd
#
# Track frame offsets:
#	150
#	15680
#	28470
#	44654
#	62136
#	85938
#	103232
#	122592
#	137995
#	150106
#	171512
#	191358
#
# Disc length: 2780 seconds
#
# Revision: 1
# Processed by: cddbd v1.5.2PL0 Copyright (c) Steve Scherf et al.
# Submitted via: audiograbber 1.83.01
#
DISCID=a60ada0c
DTITLE=Sugarland - Enjoy The Ride
DYEAR=2008
DGENRE=Country
TTITLE0=Settlin'
TTITLE1=Country Line
TTITLE2=Want To
TTITLE3=Everyday America
TTITLE4=Happy Ending
TTITLE5=There Are The Days
TTITLE6=One Blue Sky
TTITLE7=April Shower
TTITLE8=Mean Girls
TTITLE9=Stay
TTITLE10=Sugarland
TTITLE11=Who Says You Can't Go Home
EXTD=
EXTT0=
EXTT1=
EXTT2=
EXTT3=
EXTT4=
EXTT5=
EXTT6=
EXTT7=
EXTT8=
EXTT9=
EXTT10=
EXTT11=
PLAYORDER=
